<svg width="878" height="208" viewBox="0 0 878 208" fill="none" xmlns="http://www.w3.org/2000/svg">
<path d="M823.867 206.335C813.484 206.335 804.218 204.889 796.069 201.998C788.052 199.237 780.954 194.243 774.777 187.014L791.337 167.496C796.2 173.016 801.261 176.762 806.518 178.734C811.775 180.705 817.624 181.691 824.065 181.691C828.796 181.691 833.199 180.508 837.274 178.142C841.348 175.776 844.569 172.425 846.934 168.087C849.432 163.881 850.68 159.084 850.68 153.695V149.161C847.92 153.892 844.108 157.704 839.245 160.596C834.514 163.487 828.008 164.933 819.727 164.933C810.395 164.933 801.918 162.567 794.295 157.835C786.803 153.104 780.888 146.795 776.551 138.909C772.214 130.891 770.045 121.954 770.045 112.096C770.045 102.239 772.214 93.3009 776.551 85.2834C780.888 77.2659 786.803 70.957 794.295 66.3568C801.918 61.6251 810.395 59.2593 819.727 59.2593C828.271 59.2593 834.908 60.7708 839.64 63.7938C844.503 66.8168 848.314 70.8256 851.075 75.8201V61.8223H877.296V155.272C877.296 165.787 874.996 174.856 870.395 182.479C865.927 190.103 859.684 195.952 851.666 200.026C843.648 204.232 834.382 206.335 823.867 206.335ZM824.065 140.683C832.871 140.683 839.705 137.923 844.569 132.403C849.432 126.883 851.863 120.114 851.863 112.096C851.863 104.079 849.432 97.3097 844.569 91.7894C839.705 86.2692 832.871 83.509 824.065 83.509C815.39 83.509 808.621 86.2692 803.758 91.7894C799.026 97.3097 796.66 104.079 796.66 112.096C796.66 117.222 797.712 121.954 799.815 126.291C802.049 130.628 805.204 134.111 809.278 136.74C813.353 139.369 818.282 140.683 824.065 140.683Z" fill="#0D193E"/>
<path d="M708.559 166.905C698.045 166.905 688.647 164.473 680.367 159.61C672.086 154.747 665.58 148.307 660.849 140.289C656.248 132.14 653.948 123.137 653.948 113.279C653.948 103.422 656.248 94.4182 660.849 86.2693C665.58 78.1203 672.086 71.6143 680.367 66.7512C688.647 61.8881 698.045 59.4565 708.559 59.4565C719.206 59.4565 728.603 61.8881 736.752 66.7512C745.033 71.6143 751.473 78.1203 756.073 86.2693C760.805 94.4182 763.171 103.422 763.171 113.279C763.171 123.137 760.805 132.14 756.073 140.289C751.473 148.307 745.033 154.747 736.752 159.61C728.603 164.473 719.206 166.905 708.559 166.905ZM708.559 142.655C714.211 142.655 719.14 141.34 723.346 138.712C727.552 135.952 730.772 132.337 733.006 127.868C735.372 123.4 736.555 118.537 736.555 113.279C736.555 107.89 735.372 102.961 733.006 98.4927C730.772 94.0239 727.552 90.4752 723.346 87.8465C719.14 85.0863 714.211 83.7063 708.559 83.7063C702.908 83.7063 697.979 85.0863 693.773 87.8465C689.567 90.4752 686.281 94.0239 683.915 98.4927C681.681 102.961 680.564 107.89 680.564 113.279C680.564 118.537 681.681 123.4 683.915 127.868C686.281 132.337 689.567 135.952 693.773 138.712C697.979 141.34 702.908 142.655 708.559 142.655Z" fill="#0D193E"/>
<path d="M615.534 164.342L615.534 27.3207H642.15V164.342H615.534Z" fill="#0D193E"/>
<path d="M589.683 164.342C579.562 164.342 571.808 161.844 566.419 156.85C561.03 151.855 558.335 143.772 558.335 132.6V84.4949H543.943V61.8223H558.335V38.3612H584.951V61.8223H606.638V84.4949H584.951V131.22C584.951 137.529 587.711 140.683 593.231 140.683H604.272V164.342H589.683Z" fill="#0D193E"/>
<path d="M502.378 166.904C485.16 166.904 470.965 160.924 459.793 148.964L477.734 132.6C485.226 141.012 493.243 145.218 501.786 145.218C506.387 145.218 509.87 144.232 512.236 142.26C514.733 140.157 515.981 137.594 515.981 134.571C515.981 132.731 515.521 131.154 514.601 129.84C513.813 128.525 512.038 127.277 509.278 126.094C506.65 124.911 502.641 123.728 497.252 122.545C488.051 120.311 481.217 117.551 476.748 114.265C472.279 110.979 469.322 107.299 467.876 103.224C466.43 99.1498 465.708 94.9439 465.708 90.6065C465.708 81.6689 469.059 74.2429 475.762 68.3283C482.597 62.2823 491.995 59.2593 503.955 59.2593C512.235 59.2593 519.333 60.5079 525.248 63.0052C531.162 65.5024 536.748 70.1684 542.006 77.003L522.685 91.7894C520.187 87.8464 517.361 85.0205 514.207 83.3119C511.184 81.6032 507.964 80.7489 504.547 80.7489C500.866 80.7489 497.778 81.4718 495.28 82.9176C492.915 84.3634 491.732 86.6635 491.732 89.8179C491.732 91.5266 492.52 93.2352 494.097 94.9439C495.675 96.5211 499.486 98.0983 505.532 99.6755C515.521 102.173 523.145 105.13 528.402 108.547C533.659 111.833 537.274 115.579 539.245 119.785C541.217 123.991 542.203 128.657 542.203 133.783C542.203 140.092 540.428 145.743 536.88 150.738C533.462 155.733 528.731 159.676 522.685 162.567C516.77 165.459 510.001 166.904 502.378 166.904Z" fill="#0D193E"/>
<path d="M395.592 166.707C388.231 166.707 381.594 164.999 375.679 161.581C369.765 158.164 365.099 153.301 361.682 146.992C358.264 140.552 356.556 133.06 356.556 124.517V61.8224H383.171V118.011C383.171 126.817 384.946 133.257 388.494 137.332C392.043 141.406 397.103 143.443 403.675 143.443C409.327 143.443 414.256 141.406 418.462 137.332C422.799 133.257 424.968 126.817 424.968 118.011V61.8224H451.583V164.342H425.756V148.964C423.259 154.878 419.579 159.347 414.716 162.37C409.984 165.262 403.609 166.707 395.592 166.707Z" fill="#0D193E"/>
<path d="M300.813 166.51C295.424 166.51 290.298 166.05 285.435 165.13C280.572 164.21 276.76 162.896 274 161.187L284.449 138.515C287.341 140.618 291.547 141.669 297.067 141.669C301.667 141.669 305.479 140.552 308.502 138.318C311.656 135.952 313.233 132.074 313.233 126.686V26.335H340.835V127.671C340.835 136.609 339.06 143.969 335.512 149.752C332.094 155.404 327.363 159.61 321.317 162.37C315.402 165.13 308.567 166.51 300.813 166.51Z" fill="#0D193E"/>
<path d="M0 91.7148C0 142.289 53.3973 183.43 119.005 183.43C133.512 183.43 147.78 181.384 161.408 177.361L164.304 176.509L197.672 207.346V160.416L199.892 158.823C224.11 141.469 238 117.004 238 91.7148C238 41.146 184.603 -6.10352e-05 119.005 -6.10352e-05C53.3973 -6.10352e-05 0 41.146 0 91.7148Z" fill="#9748FF"/>
<circle cx="119.219" cy="91.9197" r="75.3591" fill="white"/>
<path d="M172.249 69.6899L107.309 141.367L64.5938 101.551L84.5704 71.9313L105.609 107.853L150.23 43.674L172.249 69.6899Z" fill="#9748FF"/>
</svg>
